# xmcd CD database file
#
# Track frame offsets:
#	187
#	18750
#	37025
#	48290
#	62437
#	80692
#	104745
#	121150
#	139850
#	156325
#
# Disc length: 2253 seconds
#
# Revision: 0
# Processed by: cddbd v1.5.1PL2 Copyright (c) Steve Scherf et al.
# Submitted via: CDex 1.51
#
DISCID=8108cb0a
DTITLE=清水靖晃 - デメントス
DYEAR=1900
DGENRE=Rock
TTITLE0=青い背広
TTITLE1=デメントス
TTITLE2=シュリーク夫人
TTITLE3=普通の日
TTITLE4=絶句
TTITLE5=私は愛に死ぬ
TTITLE6=秘書の友達
TTITLE7=大好きなアナコンダ
TTITLE8=ソルデロック
TTITLE9=さてと
EXTD=
EXTT0=
EXTT1=
EXTT2=
EXTT3=
EXTT4=
EXTT5=
EXTT6=
EXTT7=
EXTT8=
EXTT9=
PLAYORDER=
